# Blender v2.92.0 OBJ File: ''
# www.blender.org
mtllib main_b.mtl
o Curve_Curve.004
v 0.000000 0.000000 -0.055923
v 0.040923 0.000000 -0.069904
v 0.075883 0.000000 -0.055923
v 0.151046 0.000000 -0.062915
v 0.247187 0.000000 -0.062915
v 0.331090 0.000000 -0.096118
v 0.332022 0.000000 -0.096772
v 0.334610 0.000000 -0.098586
v 0.338546 0.000000 -0.101334
v 0.343520 0.000000 -0.104791
v 0.349222 0.000000 -0.108735
v 0.355343 0.000000 -0.112939
v 0.361573 0.000000 -0.117180
v 0.367603 0.000000 -0.121233
v 0.373124 0.000000 -0.124873
v 0.377825 0.000000 -0.127876
v 0.381397 0.000000 -0.130018
v 0.383531 0.000000 -0.131073
v 0.385493 0.000000 -0.131681
v 0.388589 0.000000 -0.132586
v 0.392572 0.000000 -0.133722
v 0.397192 0.000000 -0.135022
v 0.402200 0.000000 -0.136418
v 0.407347 0.000000 -0.137845
v 0.412385 0.000000 -0.139235
v 0.417065 0.000000 -0.140522
v 0.421138 0.000000 -0.141640
v 0.424356 0.000000 -0.142520
v 0.426469 0.000000 -0.143098
v 0.427228 0.000000 -0.143305
v 0.427503 0.000000 -0.143064
v 0.428264 0.000000 -0.142399
v 0.429413 0.000000 -0.141394
v 0.430854 0.000000 -0.140134
v 0.432489 0.000000 -0.138704
v 0.434220 0.000000 -0.137189
v 0.435952 0.000000 -0.135674
v 0.437587 0.000000 -0.134244
v 0.439028 0.000000 -0.132984
v 0.440177 0.000000 -0.131979
v 0.440938 0.000000 -0.131314
v 0.441213 0.000000 -0.131073
v 0.441352 0.000000 -0.131147
v 0.441747 0.000000 -0.131372
v 0.442360 0.000000 -0.131755
v 0.443155 0.000000 -0.132302
v 0.444096 0.000000 -0.133019
v 0.445146 0.000000 -0.133912
v 0.446269 0.000000 -0.134987
v 0.447428 0.000000 -0.136250
v 0.448588 0.000000 -0.137707
v 0.449710 0.000000 -0.139365
v 0.450760 0.000000 -0.141228
v 0.451700 0.000000 -0.143305
v 0.453054 0.000000 -0.145931
v 0.455245 0.000000 -0.149316
v 0.458092 0.000000 -0.153271
v 0.461413 0.000000 -0.157607
v 0.465026 0.000000 -0.162138
v 0.468748 0.000000 -0.166675
v 0.472397 0.000000 -0.171030
v 0.475791 0.000000 -0.175015
v 0.478748 0.000000 -0.178441
v 0.481086 0.000000 -0.181121
v 0.482622 0.000000 -0.182867
v 0.483174 0.000000 -0.183491
v 0.483312 0.000000 -0.183207
v 0.483692 0.000000 -0.182420
v 0.484267 0.000000 -0.181231
v 0.484987 0.000000 -0.179741
v 0.485804 0.000000 -0.178051
v 0.486670 0.000000 -0.176259
v 0.487535 0.000000 -0.174468
v 0.488353 0.000000 -0.172777
v 0.489073 0.000000 -0.171287
v 0.489647 0.000000 -0.170099
v 0.490028 0.000000 -0.169312
v 0.490165 0.000000 -0.169027
v 0.507638 0.000000 -0.183491
v 0.532110 0.000000 -0.183491
v 0.549588 0.000000 -0.169027
v 0.602029 0.000000 -0.119721
v 0.603152 0.000000 -0.118809
v 0.606263 0.000000 -0.116283
v 0.610972 0.000000 -0.112458
v 0.616891 0.000000 -0.107650
v 0.623630 0.000000 -0.102174
v 0.630802 0.000000 -0.096347
v 0.638017 0.000000 -0.090483
v 0.644887 0.000000 -0.084898
v 0.651022 0.000000 -0.079908
v 0.656034 0.000000 -0.075829
v 0.659534 0.000000 -0.072975
v 0.661133 0.000000 -0.071662
v 0.663468 0.000000 -0.071330
v 0.669000 0.000000 -0.071185
v 0.677082 0.000000 -0.071198
v 0.687066 0.000000 -0.071339
v 0.698303 0.000000 -0.071576
v 0.710145 0.000000 -0.071881
v 0.721944 0.000000 -0.072221
v 0.733051 0.000000 -0.072568
v 0.742818 0.000000 -0.072890
v 0.750597 0.000000 -0.073158
v 0.755740 0.000000 -0.073341
v 0.757599 0.000000 -0.073409
v 0.758803 0.000000 -0.074320
v 0.762131 0.000000 -0.076839
v 0.767158 0.000000 -0.080645
v 0.773461 0.000000 -0.085416
v 0.780613 0.000000 -0.090830
v 0.788189 0.000000 -0.096565
v 0.795766 0.000000 -0.102301
v 0.802918 0.000000 -0.107714
v 0.809220 0.000000 -0.112485
v 0.814248 0.000000 -0.116291
v 0.817576 0.000000 -0.118810
v 0.818780 0.000000 -0.119721
v 0.871221 0.000000 -0.169044
v 0.890446 0.000000 -0.169044
v 0.904431 0.000000 -0.150303
v 0.948131 0.000000 -0.169044
v 0.956880 0.000000 -0.183508
v 0.986596 0.000000 -0.183508
v 1.009321 0.000000 -0.169044
v 1.030287 0.000000 -0.183491
v 1.046019 0.000000 -0.193977
v 1.058121 0.000000 -0.172365
v 1.058121 0.000000 -0.146809
v 1.075735 0.000000 -0.124964
v 1.105450 0.000000 -0.099622
v 1.105912 0.000000 -0.099447
v 1.107188 0.000000 -0.098950
v 1.109116 0.000000 -0.098174
v 1.111533 0.000000 -0.097161
v 1.114276 0.000000 -0.095953
v 1.117181 0.000000 -0.094595
v 1.120087 0.000000 -0.093127
v 1.122829 0.000000 -0.091592
v 1.125246 0.000000 -0.090034
v 1.127174 0.000000 -0.088494
v 1.128450 0.000000 -0.087016
v 1.128912 0.000000 -0.085641
v 1.128912 0.000000 -0.083956
v 1.128912 0.000000 -0.079298
v 1.128912 0.000000 -0.072261
v 1.128912 0.000000 -0.063440
v 1.128912 0.000000 -0.053430
v 1.128912 0.000000 -0.042825
v 1.128912 0.000000 -0.032220
v 1.128912 0.000000 -0.022209
v 1.128912 0.000000 -0.013389
v 1.128912 0.000000 -0.006352
v 1.128912 0.000000 -0.001693
v 1.128912 0.000000 -0.000008
v 0.000000 0.000000 -0.000008
vt 0.806452 0.000000
vt 0.819355 0.000000
vt 0.812903 0.000000
vt 0.780645 0.000000
vt 0.793548 0.000000
vt 0.787097 0.000000
vt 0.800000 0.000000
vt 0.412903 0.000000
vt 0.425806 0.000000
vt 0.419355 0.000000
vt 0.496774 0.000000
vt 0.509677 0.000000
vt 0.503226 0.000000
vt 0.516129 0.000000
vt 0.432258 0.000000
vt 0.406452 0.000000
vt 0.438710 0.000000
vt 0.445161 0.000000
vt 0.400000 0.000000
vt 0.451613 0.000000
vt 0.393548 0.000000
vt 0.458065 0.000000
vt 0.464516 0.000000
vt 0.387097 0.000000
vt 0.470968 0.000000
vt 0.477419 0.000000
vt 0.825806 0.000000
vt 0.483871 0.000000
vt 0.380645 0.000000
vt 0.490323 0.000000
vt 0.754839 0.000000
vt 0.767742 0.000000
vt 0.761290 0.000000
vt 0.774194 0.000000
vt 0.522581 0.000000
vt 0.374194 0.000000
vt 0.367742 0.000000
vt 0.361290 0.000000
vt 0.354839 0.000000
vt 0.348387 0.000000
vt 0.832258 0.000000
vt 0.341935 0.000000
vt 0.180645 0.000000
vt 0.193548 0.000000
vt 0.187097 0.000000
vt 0.335484 0.000000
vt 0.174194 0.000000
vt 0.200000 0.000000
vt 0.167742 0.000000
vt 0.206452 0.000000
vt 0.161290 0.000000
vt 0.212903 0.000000
vt 0.329032 0.000000
vt 0.154839 0.000000
vt 0.219355 0.000000
vt 0.322581 0.000000
vt 0.148387 0.000000
vt 0.225806 0.000000
vt 0.141935 0.000000
vt 0.316129 0.000000
vt 0.232258 0.000000
vt 0.135484 0.000000
vt 0.309677 0.000000
vt 0.238710 0.000000
vt 0.129032 0.000000
vt 0.303226 0.000000
vt 0.245161 0.000000
vt 0.296774 0.000000
vt 0.122581 0.000000
vt 0.290323 0.000000
vt 0.251613 0.000000
vt 0.116129 0.000000
vt 0.283871 0.000000
vt 0.258065 0.000000
vt 0.277419 0.000000
vt 0.109677 0.000000
vt 0.270968 0.000000
vt 0.264516 0.000000
vt 0.103226 0.000000
vt 0.096774 0.000000
vt 0.090323 0.000000
vt 0.838710 0.000000
vt 0.083871 0.000000
vt 0.077419 0.000000
vt 0.529032 0.000000
vt 0.748387 0.000000
vt 0.741935 0.000000
vt 0.535484 0.000000
vt 0.070968 0.000000
vt 0.735484 0.000000
vt 0.541936 0.000000
vt 0.064516 0.000000
vt 0.729032 0.000000
vt 0.548387 0.000000
vt 0.058065 0.000000
vt 0.722581 0.000000
vt 0.554839 0.000000
vt 0.051613 0.000000
vt 0.716129 0.000000
vt 0.561290 0.000000
vt 0.045161 0.000000
vt 0.845161 0.000000
vt 0.851613 0.000000
vt 0.858065 0.000000
vt 0.038710 0.000000
vt 0.864516 0.000000
vt 0.870968 0.000000
vt 0.032258 0.000000
vt 0.709677 0.000000
vt 0.567742 0.000000
vt 0.025806 0.000000
vt 0.877419 0.000000
vt 0.883871 0.000000
vt 0.890323 0.000000
vt 0.896774 0.000000
vt 0.703226 0.000000
vt 0.574194 0.000000
vt 0.903226 0.000000
vt 0.909677 0.000000
vt 0.916129 0.000000
vt 0.922581 0.000000
vt 0.696774 0.000000
vt 0.580645 0.000000
vt 0.929032 0.000000
vt 0.690323 0.000000
vt 0.587097 0.000000
vt 0.935484 0.000000
vt 0.683871 0.000000
vt 0.593548 0.000000
vt 0.677419 0.000000
vt 0.670968 0.000000
vt 0.664516 0.000000
vt 0.658065 0.000000
vt 0.600000 0.000000
vt 0.651613 0.000000
vt 0.645161 0.000000
vt 0.941935 0.000000
vt 0.638710 0.000000
vt 0.632258 0.000000
vt 0.606452 0.000000
vt 0.625806 0.000000
vt 0.619355 0.000000
vt 0.612903 0.000000
vt 0.000000 0.000000
vt 0.012903 0.000000
vt 0.006452 0.000000
vt 0.948387 0.000000
vt 0.019355 0.000000
vt 1.000000 0.000000
vt 0.954839 0.000000
vt 0.961290 0.000000
vt 0.967742 0.000000
vt 0.974194 0.000000
vt 0.980645 0.000000
vt 0.987097 0.000000
vt 0.993548 0.000000
vn 0.0000 1.0000 0.0000
usemtl SVGMat.001
s off
f 126/1/1 128/2/1 127/3/1
f 122/4/1 124/5/1 123/6/1
f 122/4/1 125/7/1 124/5/1
f 65/8/1 67/9/1 66/10/1
f 78/11/1 80/12/1 79/13/1
f 78/11/1 81/14/1 80/12/1
f 125/7/1 128/2/1 126/1/1
f 65/8/1 68/15/1 67/9/1
f 64/16/1 68/15/1 65/8/1
f 64/16/1 69/17/1 68/15/1
f 64/16/1 70/18/1 69/17/1
f 63/19/1 70/18/1 64/16/1
f 63/19/1 71/20/1 70/18/1
f 62/21/1 71/20/1 63/19/1
f 62/21/1 72/22/1 71/20/1
f 62/21/1 73/23/1 72/22/1
f 61/24/1 73/23/1 62/21/1
f 61/24/1 74/25/1 73/23/1
f 61/24/1 75/26/1 74/25/1
f 125/7/1 129/27/1 128/2/1
f 61/24/1 76/28/1 75/26/1
f 60/29/1 76/28/1 61/24/1
f 60/29/1 77/30/1 76/28/1
f 60/29/1 78/11/1 77/30/1
f 118/31/1 120/32/1 119/33/1
f 118/31/1 121/34/1 120/32/1
f 121/34/1 125/7/1 122/4/1
f 121/34/1 129/27/1 125/7/1
f 60/29/1 81/14/1 78/11/1
f 60/29/1 82/35/1 81/14/1
f 59/36/1 82/35/1 60/29/1
f 58/37/1 82/35/1 59/36/1
f 57/38/1 82/35/1 58/37/1
f 56/39/1 82/35/1 57/38/1
f 118/31/1 129/27/1 121/34/1
f 55/40/1 82/35/1 56/39/1
f 118/31/1 130/41/1 129/27/1
f 54/42/1 82/35/1 55/40/1
f 29/43/1 31/44/1 30/45/1
f 53/46/1 82/35/1 54/42/1
f 28/47/1 31/44/1 29/43/1
f 28/47/1 32/48/1 31/44/1
f 27/49/1 32/48/1 28/47/1
f 27/49/1 33/50/1 32/48/1
f 26/51/1 33/50/1 27/49/1
f 26/51/1 34/52/1 33/50/1
f 52/53/1 82/35/1 53/46/1
f 25/54/1 34/52/1 26/51/1
f 25/54/1 35/55/1 34/52/1
f 51/56/1 82/35/1 52/53/1
f 24/57/1 35/55/1 25/54/1
f 24/57/1 36/58/1 35/55/1
f 23/59/1 36/58/1 24/57/1
f 50/60/1 82/35/1 51/56/1
f 23/59/1 37/61/1 36/58/1
f 22/62/1 37/61/1 23/59/1
f 49/63/1 82/35/1 50/60/1
f 22/62/1 38/64/1 37/61/1
f 21/65/1 38/64/1 22/62/1
f 48/66/1 82/35/1 49/63/1
f 21/65/1 39/67/1 38/64/1
f 47/68/1 82/35/1 48/66/1
f 20/69/1 39/67/1 21/65/1
f 46/70/1 82/35/1 47/68/1
f 20/69/1 40/71/1 39/67/1
f 19/72/1 40/71/1 20/69/1
f 45/73/1 82/35/1 46/70/1
f 19/72/1 41/74/1 40/71/1
f 44/75/1 82/35/1 45/73/1
f 18/76/1 41/74/1 19/72/1
f 43/77/1 82/35/1 44/75/1
f 18/76/1 42/78/1 41/74/1
f 42/78/1 82/35/1 43/77/1
f 17/79/1 42/78/1 18/76/1
f 17/79/1 82/35/1 42/78/1
f 16/80/1 82/35/1 17/79/1
f 15/81/1 82/35/1 16/80/1
f 118/31/1 131/82/1 130/41/1
f 14/83/1 82/35/1 15/81/1
f 13/84/1 82/35/1 14/83/1
f 13/84/1 83/85/1 82/35/1
f 117/86/1 131/82/1 118/31/1
f 116/87/1 131/82/1 117/86/1
f 13/84/1 84/88/1 83/85/1
f 12/89/1 84/88/1 13/84/1
f 115/90/1 131/82/1 116/87/1
f 12/89/1 85/91/1 84/88/1
f 11/92/1 85/91/1 12/89/1
f 114/93/1 131/82/1 115/90/1
f 11/92/1 86/94/1 85/91/1
f 10/95/1 86/94/1 11/92/1
f 113/96/1 131/82/1 114/93/1
f 10/95/1 87/97/1 86/94/1
f 9/98/1 87/97/1 10/95/1
f 112/99/1 131/82/1 113/96/1
f 9/98/1 88/100/1 87/97/1
f 8/101/1 88/100/1 9/98/1
f 112/99/1 132/102/1 131/82/1
f 112/99/1 133/103/1 132/102/1
f 112/99/1 134/104/1 133/103/1
f 7/105/1 88/100/1 8/101/1
f 112/99/1 135/106/1 134/104/1
f 112/99/1 136/107/1 135/106/1
f 6/108/1 88/100/1 7/105/1
f 111/109/1 136/107/1 112/99/1
f 6/108/1 89/110/1 88/100/1
f 5/111/1 89/110/1 6/108/1
f 111/109/1 137/112/1 136/107/1
f 111/109/1 138/113/1 137/112/1
f 111/109/1 139/114/1 138/113/1
f 111/109/1 140/115/1 139/114/1
f 110/116/1 140/115/1 111/109/1
f 5/111/1 90/117/1 89/110/1
f 110/116/1 141/118/1 140/115/1
f 110/116/1 142/119/1 141/118/1
f 110/116/1 143/120/1 142/119/1
f 110/116/1 144/121/1 143/120/1
f 109/122/1 144/121/1 110/116/1
f 5/111/1 91/123/1 90/117/1
f 109/122/1 145/124/1 144/121/1
f 108/125/1 145/124/1 109/122/1
f 5/111/1 92/126/1 91/123/1
f 108/125/1 146/127/1 145/124/1
f 107/128/1 146/127/1 108/125/1
f 5/111/1 93/129/1 92/126/1
f 106/130/1 146/127/1 107/128/1
f 105/131/1 146/127/1 106/130/1
f 104/132/1 146/127/1 105/131/1
f 103/133/1 146/127/1 104/132/1
f 5/111/1 94/134/1 93/129/1
f 102/135/1 146/127/1 103/133/1
f 101/136/1 146/127/1 102/135/1
f 101/136/1 147/137/1 146/127/1
f 100/138/1 147/137/1 101/136/1
f 99/139/1 147/137/1 100/138/1
f 5/111/1 95/140/1 94/134/1
f 98/141/1 147/137/1 99/139/1
f 97/142/1 147/137/1 98/141/1
f 5/111/1 96/143/1 95/140/1
f 96/143/1 147/137/1 97/142/1
f 5/111/1 147/137/1 96/143/1
f 1/144/1 3/145/1 2/146/1
f 5/111/1 148/147/1 147/137/1
f 3/145/1 5/111/1 4/148/1
f 3/145/1 148/147/1 5/111/1
f 156/149/1 3/145/1 1/144/1
f 156/149/1 148/147/1 3/145/1
f 156/149/1 149/150/1 148/147/1
f 156/149/1 150/151/1 149/150/1
f 156/149/1 151/152/1 150/151/1
f 156/149/1 152/153/1 151/152/1
f 156/149/1 153/154/1 152/153/1
f 156/149/1 154/155/1 153/154/1
f 156/149/1 155/156/1 154/155/1
