# Blender v2.92.0 OBJ File: ''
# www.blender.org
mtllib mountain3.mtl
o Curve_Curve.002
v 0.000000 0.000000 -0.178048
v 0.016668 0.000000 -0.182636
v 0.046167 0.000000 -0.178048
v 0.064512 0.000000 -0.170184
v 0.124818 0.000000 -0.161008
v 0.164821 0.000000 -0.171824
v 0.195629 0.000000 -0.161008
v 0.221831 0.000000 -0.161008
v 0.237563 0.000000 -0.167563
v 0.254606 0.000000 -0.174772
v 0.277549 0.000000 -0.182636
v 0.314913 0.000000 -0.171824
v 0.315366 0.000000 -0.171972
v 0.316624 0.000000 -0.172382
v 0.318539 0.000000 -0.173001
v 0.320958 0.000000 -0.173778
v 0.323732 0.000000 -0.174659
v 0.326712 0.000000 -0.175592
v 0.329746 0.000000 -0.176525
v 0.332684 0.000000 -0.177406
v 0.335377 0.000000 -0.178183
v 0.337673 0.000000 -0.178802
v 0.339423 0.000000 -0.179212
v 0.340477 0.000000 -0.179360
v 0.342096 0.000000 -0.179374
v 0.343712 0.000000 -0.179435
v 0.345324 0.000000 -0.179544
v 0.346931 0.000000 -0.179700
v 0.348532 0.000000 -0.179904
v 0.350127 0.000000 -0.180154
v 0.351713 0.000000 -0.180452
v 0.353290 0.000000 -0.180796
v 0.354856 0.000000 -0.181187
v 0.356412 0.000000 -0.181624
v 0.357955 0.000000 -0.182107
v 0.359485 0.000000 -0.182636
v 0.362638 0.000000 -0.183325
v 0.367285 0.000000 -0.183774
v 0.373087 0.000000 -0.184018
v 0.379709 0.000000 -0.184092
v 0.386814 0.000000 -0.184030
v 0.394064 0.000000 -0.183865
v 0.401123 0.000000 -0.183632
v 0.407653 0.000000 -0.183364
v 0.413319 0.000000 -0.183097
v 0.417783 0.000000 -0.182864
v 0.420709 0.000000 -0.182699
v 0.421759 0.000000 -0.182636
v 0.422702 0.000000 -0.182598
v 0.425315 0.000000 -0.182493
v 0.429276 0.000000 -0.182338
v 0.434262 0.000000 -0.182149
v 0.439948 0.000000 -0.181941
v 0.446012 0.000000 -0.181732
v 0.452131 0.000000 -0.181536
v 0.457981 0.000000 -0.181370
v 0.463240 0.000000 -0.181250
v 0.467583 0.000000 -0.181191
v 0.470688 0.000000 -0.181211
v 0.472232 0.000000 -0.181324
v 0.473686 0.000000 -0.181518
v 0.476542 0.000000 -0.181760
v 0.480508 0.000000 -0.182037
v 0.485294 0.000000 -0.182337
v 0.490607 0.000000 -0.182648
v 0.496158 0.000000 -0.182957
v 0.501654 0.000000 -0.183253
v 0.506804 0.000000 -0.183522
v 0.511316 0.000000 -0.183753
v 0.514900 0.000000 -0.183933
v 0.517264 0.000000 -0.184051
v 0.518117 0.000000 -0.184092
v 0.518672 0.000000 -0.184206
v 0.520205 0.000000 -0.184519
v 0.522521 0.000000 -0.184991
v 0.525424 0.000000 -0.185584
v 0.528719 0.000000 -0.186257
v 0.532210 0.000000 -0.186969
v 0.535701 0.000000 -0.187682
v 0.538996 0.000000 -0.188354
v 0.541899 0.000000 -0.188947
v 0.544215 0.000000 -0.189420
v 0.545748 0.000000 -0.189733
v 0.546303 0.000000 -0.189846
v 0.556136 0.000000 -0.183291
v 0.579078 0.000000 -0.189846
v 0.590221 0.000000 -0.197710
v 0.615130 0.000000 -0.192467
v 0.651839 0.000000 -0.189846
v 0.704932 0.000000 -0.197710
v 0.739674 0.000000 -0.218026
v 0.767206 0.000000 -0.235721
v 0.767775 0.000000 -0.235889
v 0.769357 0.000000 -0.236361
v 0.771763 0.000000 -0.237082
v 0.774804 0.000000 -0.238002
v 0.778292 0.000000 -0.239067
v 0.782036 0.000000 -0.240226
v 0.785849 0.000000 -0.241425
v 0.789541 0.000000 -0.242614
v 0.792924 0.000000 -0.243738
v 0.795808 0.000000 -0.244746
v 0.798005 0.000000 -0.245587
v 0.799326 0.000000 -0.246206
v 0.800674 0.000000 -0.247007
v 0.802950 0.000000 -0.248351
v 0.805964 0.000000 -0.250128
v 0.809524 0.000000 -0.252226
v 0.813438 0.000000 -0.254533
v 0.817517 0.000000 -0.256938
v 0.821568 0.000000 -0.259329
v 0.825401 0.000000 -0.261595
v 0.828824 0.000000 -0.263624
v 0.831646 0.000000 -0.265305
v 0.833676 0.000000 -0.266527
v 0.834723 0.000000 -0.267177
v 0.835846 0.000000 -0.267736
v 0.838077 0.000000 -0.268700
v 0.841187 0.000000 -0.269983
v 0.844946 0.000000 -0.271499
v 0.849124 0.000000 -0.273161
v 0.853491 0.000000 -0.274881
v 0.857817 0.000000 -0.276575
v 0.861872 0.000000 -0.278155
v 0.865426 0.000000 -0.279534
v 0.868249 0.000000 -0.280626
v 0.870111 0.000000 -0.281345
v 0.870783 0.000000 -0.281604
v 0.871170 0.000000 -0.282017
v 0.872240 0.000000 -0.283157
v 0.873856 0.000000 -0.284881
v 0.875881 0.000000 -0.287041
v 0.878180 0.000000 -0.289492
v 0.880615 0.000000 -0.292089
v 0.883050 0.000000 -0.294687
v 0.885348 0.000000 -0.297138
v 0.887374 0.000000 -0.299298
v 0.888990 0.000000 -0.301021
v 0.890059 0.000000 -0.302162
v 0.890446 0.000000 -0.302575
v 0.913389 0.000000 -0.302575
v 0.945509 0.000000 -0.282259
v 1.007125 0.000000 -0.283571
v 1.014327 0.000000 -0.280284
v 1.027637 0.000000 -0.283531
v 1.045135 0.000000 -0.297978
v 1.045640 0.000000 -0.298159
v 1.047044 0.000000 -0.298658
v 1.049181 0.000000 -0.299412
v 1.051885 0.000000 -0.300357
v 1.054989 0.000000 -0.301430
v 1.058327 0.000000 -0.302566
v 1.061734 0.000000 -0.303703
v 1.065044 0.000000 -0.304775
v 1.068089 0.000000 -0.305721
v 1.070704 0.000000 -0.306475
v 1.072723 0.000000 -0.306974
v 1.073979 0.000000 -0.307154
v 1.075248 0.000000 -0.306987
v 1.077303 0.000000 -0.306523
v 1.079971 0.000000 -0.305823
v 1.083084 0.000000 -0.304945
v 1.086469 0.000000 -0.303949
v 1.089957 0.000000 -0.302894
v 1.093376 0.000000 -0.301838
v 1.096557 0.000000 -0.300842
v 1.099327 0.000000 -0.299964
v 1.101518 0.000000 -0.299264
v 1.102957 0.000000 -0.298801
v 1.103475 0.000000 -0.298633
v 1.103975 0.000000 -0.298543
v 1.105359 0.000000 -0.298293
v 1.107449 0.000000 -0.297917
v 1.110070 0.000000 -0.297444
v 1.113043 0.000000 -0.296908
v 1.116193 0.000000 -0.296340
v 1.119344 0.000000 -0.295773
v 1.122317 0.000000 -0.295237
v 1.124937 0.000000 -0.294764
v 1.127028 0.000000 -0.294387
v 1.128412 0.000000 -0.294138
v 1.128912 0.000000 -0.294048
v 1.128912 0.000000 -0.000000
v 0.000000 0.000000 -0.000000
vt 0.852459 0.000000
vt 0.863388 0.000000
vt 0.857924 0.000000
vt 0.868852 0.000000
vt 0.846995 0.000000
vt 0.874317 0.000000
vt 0.841530 0.000000
vt 0.879781 0.000000
vt 0.836066 0.000000
vt 0.885246 0.000000
vt 0.830601 0.000000
vt 0.890710 0.000000
vt 0.825137 0.000000
vt 0.896175 0.000000
vt 0.754098 0.000000
vt 0.765027 0.000000
vt 0.759563 0.000000
vt 0.770492 0.000000
vt 0.819672 0.000000
vt 0.748634 0.000000
vt 0.901639 0.000000
vt 0.814208 0.000000
vt 0.743169 0.000000
vt 0.907104 0.000000
vt 0.808743 0.000000
vt 0.912568 0.000000
vt 0.803279 0.000000
vt 0.737705 0.000000
vt 0.918033 0.000000
vt 0.923497 0.000000
vt 0.797814 0.000000
vt 0.928962 0.000000
vt 0.934426 0.000000
vt 0.939891 0.000000
vt 0.792350 0.000000
vt 0.786885 0.000000
vt 0.945355 0.000000
vt 0.950820 0.000000
vt 0.732240 0.000000
vt 0.956284 0.000000
vt 0.961749 0.000000
vt 0.967213 0.000000
vt 0.972678 0.000000
vt 0.978142 0.000000
vt 0.726776 0.000000
vt 0.983607 0.000000
vt 0.989071 0.000000
vt 0.994536 0.000000
vt 0.721311 0.000000
vt 0.715847 0.000000
vt 0.710383 0.000000
vt 0.704918 0.000000
vt 0.781421 0.000000
vt 0.775956 0.000000
vt 0.699454 0.000000
vt 0.693989 0.000000
vt 0.688525 0.000000
vt 0.683060 0.000000
vt 0.677596 0.000000
vt 0.672131 0.000000
vt 0.666667 0.000000
vt 0.661202 0.000000
vt 0.655738 0.000000
vt 0.650273 0.000000
vt 0.644809 0.000000
vt 0.639344 0.000000
vt 0.633880 0.000000
vt 0.628415 0.000000
vt 0.622951 0.000000
vt 0.617486 0.000000
vt 0.612022 0.000000
vt 0.606557 0.000000
vt 0.601093 0.000000
vt 0.595628 0.000000
vt 0.590164 0.000000
vt 0.584699 0.000000
vt 0.579235 0.000000
vt 0.573770 0.000000
vt 0.568306 0.000000
vt 0.562842 0.000000
vt 0.557377 0.000000
vt 0.551913 0.000000
vt 0.546448 0.000000
vt 0.540984 0.000000
vt 0.535519 0.000000
vt 0.530055 0.000000
vt 0.524590 0.000000
vt 0.519126 0.000000
vt 0.513661 0.000000
vt 0.508197 0.000000
vt 0.502732 0.000000
vt 0.497268 0.000000
vt 0.491803 0.000000
vt 0.486339 0.000000
vt 0.464481 0.000000
vt 0.475410 0.000000
vt 0.469945 0.000000
vt 0.480874 0.000000
vt 0.448087 0.000000
vt 0.459016 0.000000
vt 0.453552 0.000000
vt 0.442623 0.000000
vt 0.437158 0.000000
vt 0.431694 0.000000
vt 0.426230 0.000000
vt 0.420765 0.000000
vt 0.415301 0.000000
vt 0.409836 0.000000
vt 0.404372 0.000000
vt 0.398907 0.000000
vt 0.393443 0.000000
vt 0.387978 0.000000
vt 0.207650 0.000000
vt 0.218579 0.000000
vt 0.213115 0.000000
vt 0.382514 0.000000
vt 0.377049 0.000000
vt 0.224044 0.000000
vt 0.202186 0.000000
vt 0.371585 0.000000
vt 0.229508 0.000000
vt 0.196721 0.000000
vt 0.366120 0.000000
vt 0.234973 0.000000
vt 0.360656 0.000000
vt 0.240437 0.000000
vt 0.191257 0.000000
vt 0.355191 0.000000
vt 0.245902 0.000000
vt 0.349727 0.000000
vt 0.251366 0.000000
vt 0.256831 0.000000
vt 0.344262 0.000000
vt 0.000000 0.000000
vt 0.010929 0.000000
vt 0.005464 0.000000
vt 0.049180 0.000000
vt 0.060109 0.000000
vt 0.054645 0.000000
vt 0.185792 0.000000
vt 0.262295 0.000000
vt 0.267760 0.000000
vt 0.273224 0.000000
vt 0.278689 0.000000
vt 0.338798 0.000000
vt 0.284153 0.000000
vt 0.180328 0.000000
vt 0.333333 0.000000
vt 0.289617 0.000000
vt 0.327869 0.000000
vt 0.295082 0.000000
vt 0.174863 0.000000
vt 0.300546 0.000000
vt 0.322404 0.000000
vt 0.306011 0.000000
vt 0.316940 0.000000
vt 0.311475 0.000000
vt 0.169399 0.000000
vt 0.163934 0.000000
vt 0.158470 0.000000
vt 0.153005 0.000000
vt 0.147541 0.000000
vt 0.142077 0.000000
vt 0.136612 0.000000
vt 0.131148 0.000000
vt 0.125683 0.000000
vt 0.120219 0.000000
vt 0.114754 0.000000
vt 0.109290 0.000000
vt 0.103825 0.000000
vt 1.000000 0.000000
vt 0.016393 0.000000
vt 0.098361 0.000000
vt 0.092896 0.000000
vt 0.087432 0.000000
vt 0.043716 0.000000
vt 0.081967 0.000000
vt 0.076503 0.000000
vt 0.071038 0.000000
vt 0.065574 0.000000
vt 0.021858 0.000000
vt 0.032787 0.000000
vt 0.027322 0.000000
vt 0.038251 0.000000
vn 0.0000 1.0000 0.0000
usemtl SVGMat.002
s off
f 157/1/1 159/2/1 158/3/1
f 157/1/1 160/4/1 159/2/1
f 156/5/1 160/4/1 157/1/1
f 156/5/1 161/6/1 160/4/1
f 155/7/1 161/6/1 156/5/1
f 155/7/1 162/8/1 161/6/1
f 154/9/1 162/8/1 155/7/1
f 154/9/1 163/10/1 162/8/1
f 153/11/1 163/10/1 154/9/1
f 153/11/1 164/12/1 163/10/1
f 152/13/1 164/12/1 153/11/1
f 152/13/1 165/14/1 164/12/1
f 139/15/1 141/16/1 140/17/1
f 139/15/1 142/18/1 141/16/1
f 151/19/1 165/14/1 152/13/1
f 138/20/1 142/18/1 139/15/1
f 151/19/1 166/21/1 165/14/1
f 150/22/1 166/21/1 151/19/1
f 137/23/1 142/18/1 138/20/1
f 150/22/1 167/24/1 166/21/1
f 149/25/1 167/24/1 150/22/1
f 149/25/1 168/26/1 167/24/1
f 148/27/1 168/26/1 149/25/1
f 136/28/1 142/18/1 137/23/1
f 148/27/1 169/29/1 168/26/1
f 148/27/1 170/30/1 169/29/1
f 147/31/1 170/30/1 148/27/1
f 147/31/1 171/32/1 170/30/1
f 147/31/1 172/33/1 171/32/1
f 147/31/1 173/34/1 172/33/1
f 146/35/1 173/34/1 147/31/1
f 145/36/1 173/34/1 146/35/1
f 145/36/1 174/37/1 173/34/1
f 145/36/1 175/38/1 174/37/1
f 135/39/1 142/18/1 136/28/1
f 145/36/1 176/40/1 175/38/1
f 145/36/1 177/41/1 176/40/1
f 145/36/1 178/42/1 177/41/1
f 145/36/1 179/43/1 178/42/1
f 145/36/1 180/44/1 179/43/1
f 134/45/1 142/18/1 135/39/1
f 145/36/1 181/46/1 180/44/1
f 145/36/1 182/47/1 181/46/1
f 145/36/1 183/48/1 182/47/1
f 133/49/1 142/18/1 134/45/1
f 132/50/1 142/18/1 133/49/1
f 131/51/1 142/18/1 132/50/1
f 130/52/1 142/18/1 131/51/1
f 142/18/1 144/53/1 143/54/1
f 144/53/1 183/48/1 145/36/1
f 129/55/1 142/18/1 130/52/1
f 129/55/1 144/53/1 142/18/1
f 128/56/1 144/53/1 129/55/1
f 127/57/1 144/53/1 128/56/1
f 126/58/1 144/53/1 127/57/1
f 125/59/1 144/53/1 126/58/1
f 125/59/1 183/48/1 144/53/1
f 124/60/1 183/48/1 125/59/1
f 123/61/1 183/48/1 124/60/1
f 122/62/1 183/48/1 123/61/1
f 121/63/1 183/48/1 122/62/1
f 120/64/1 183/48/1 121/63/1
f 119/65/1 183/48/1 120/64/1
f 118/66/1 183/48/1 119/65/1
f 117/67/1 183/48/1 118/66/1
f 116/68/1 183/48/1 117/67/1
f 115/69/1 183/48/1 116/68/1
f 114/70/1 183/48/1 115/69/1
f 113/71/1 183/48/1 114/70/1
f 112/72/1 183/48/1 113/71/1
f 111/73/1 183/48/1 112/72/1
f 110/74/1 183/48/1 111/73/1
f 109/75/1 183/48/1 110/74/1
f 108/76/1 183/48/1 109/75/1
f 107/77/1 183/48/1 108/76/1
f 106/78/1 183/48/1 107/77/1
f 105/79/1 183/48/1 106/78/1
f 104/80/1 183/48/1 105/79/1
f 103/81/1 183/48/1 104/80/1
f 102/82/1 183/48/1 103/81/1
f 101/83/1 183/48/1 102/82/1
f 100/84/1 183/48/1 101/83/1
f 99/85/1 183/48/1 100/84/1
f 98/86/1 183/48/1 99/85/1
f 97/87/1 183/48/1 98/86/1
f 96/88/1 183/48/1 97/87/1
f 95/89/1 183/48/1 96/88/1
f 94/90/1 183/48/1 95/89/1
f 93/91/1 183/48/1 94/90/1
f 92/92/1 183/48/1 93/91/1
f 91/93/1 183/48/1 92/92/1
f 90/94/1 183/48/1 91/93/1
f 86/95/1 88/96/1 87/97/1
f 89/98/1 183/48/1 90/94/1
f 86/95/1 89/98/1 88/96/1
f 83/99/1 85/100/1 84/101/1
f 85/100/1 89/98/1 86/95/1
f 85/100/1 183/48/1 89/98/1
f 82/102/1 85/100/1 83/99/1
f 81/103/1 85/100/1 82/102/1
f 80/104/1 85/100/1 81/103/1
f 79/105/1 85/100/1 80/104/1
f 78/106/1 85/100/1 79/105/1
f 77/107/1 85/100/1 78/106/1
f 76/108/1 85/100/1 77/107/1
f 75/109/1 85/100/1 76/108/1
f 74/110/1 85/100/1 75/109/1
f 73/111/1 85/100/1 74/110/1
f 72/112/1 85/100/1 73/111/1
f 39/113/1 41/114/1 40/115/1
f 71/116/1 85/100/1 72/112/1
f 70/117/1 85/100/1 71/116/1
f 39/113/1 42/118/1 41/114/1
f 38/119/1 42/118/1 39/113/1
f 69/120/1 85/100/1 70/117/1
f 38/119/1 43/121/1 42/118/1
f 37/122/1 43/121/1 38/119/1
f 68/123/1 85/100/1 69/120/1
f 37/122/1 44/124/1 43/121/1
f 67/125/1 85/100/1 68/123/1
f 37/122/1 45/126/1 44/124/1
f 36/127/1 45/126/1 37/122/1
f 67/125/1 183/48/1 85/100/1
f 66/128/1 183/48/1 67/125/1
f 36/127/1 46/129/1 45/126/1
f 65/130/1 183/48/1 66/128/1
f 36/127/1 47/131/1 46/129/1
f 36/127/1 48/132/1 47/131/1
f 64/133/1 183/48/1 65/130/1
f 1/134/1 3/135/1 2/136/1
f 10/137/1 12/138/1 11/139/1
f 35/140/1 48/132/1 36/127/1
f 35/140/1 49/141/1 48/132/1
f 35/140/1 50/142/1 49/141/1
f 35/140/1 51/143/1 50/142/1
f 35/140/1 52/144/1 51/143/1
f 63/145/1 183/48/1 64/133/1
f 35/140/1 53/146/1 52/144/1
f 34/147/1 53/146/1 35/140/1
f 62/148/1 183/48/1 63/145/1
f 34/147/1 54/149/1 53/146/1
f 61/150/1 183/48/1 62/148/1
f 34/147/1 55/151/1 54/149/1
f 33/152/1 55/151/1 34/147/1
f 33/152/1 56/153/1 55/151/1
f 60/154/1 183/48/1 61/150/1
f 33/152/1 57/155/1 56/153/1
f 59/156/1 183/48/1 60/154/1
f 33/152/1 58/157/1 57/155/1
f 58/157/1 183/48/1 59/156/1
f 33/152/1 183/48/1 58/157/1
f 32/158/1 183/48/1 33/152/1
f 31/159/1 183/48/1 32/158/1
f 30/160/1 183/48/1 31/159/1
f 29/161/1 183/48/1 30/160/1
f 28/162/1 183/48/1 29/161/1
f 27/163/1 183/48/1 28/162/1
f 26/164/1 183/48/1 27/163/1
f 25/165/1 183/48/1 26/164/1
f 24/166/1 183/48/1 25/165/1
f 23/167/1 183/48/1 24/166/1
f 22/168/1 183/48/1 23/167/1
f 21/169/1 183/48/1 22/168/1
f 20/170/1 183/48/1 21/169/1
f 184/171/1 3/135/1 1/134/1
f 184/171/1 4/172/1 3/135/1
f 19/173/1 183/48/1 20/170/1
f 18/174/1 183/48/1 19/173/1
f 17/175/1 183/48/1 18/174/1
f 9/176/1 12/138/1 10/137/1
f 16/177/1 183/48/1 17/175/1
f 15/178/1 183/48/1 16/177/1
f 14/179/1 183/48/1 15/178/1
f 13/180/1 183/48/1 14/179/1
f 12/138/1 183/48/1 13/180/1
f 5/181/1 7/182/1 6/183/1
f 9/176/1 183/48/1 12/138/1
f 184/171/1 5/181/1 4/172/1
f 8/184/1 183/48/1 9/176/1
f 184/171/1 7/182/1 5/181/1
f 184/171/1 8/184/1 7/182/1
f 184/171/1 183/48/1 8/184/1
